HIERARCHY
ROOT Hips
{
	OFFSET	0.00	0.00	0.00
	CHANNELS 6 Xposition Yposition Zposition Zrotation Xrotation Yrotation
	JOINT LeftUpLeg
	{
		OFFSET	 0.126116	-0.065224	 0.014019
		CHANNELS 3 Zrotation Xrotation Yrotation
		JOINT LeftLeg
		{
			OFFSET	 0.000000	 0.569914	 0.000000
			CHANNELS 3 Zrotation Xrotation Yrotation
			JOINT LeftFoot
			{
				OFFSET	 0.000000	 0.544423	 0.000000
				CHANNELS 3 Zrotation Xrotation Yrotation
				JOINT LeftToeBase
				{
					OFFSET	 0.000000	 0.207117	 0.000000
					CHANNELS 3 Zrotation Xrotation Yrotation
					End Site
					{
						OFFSET	 0.000000	 0.207117	 0.000000
					}
				}
			}
		}
	}
	JOINT RightUpLeg
	{
		OFFSET	-0.124023	-0.065224	 0.008373
		CHANNELS 3 Zrotation Xrotation Yrotation
		JOINT RightLeg
		{
			OFFSET	 0.000000	 0.570047	 0.000000
			CHANNELS 3 Zrotation Xrotation Yrotation
			JOINT RightFoot
			{
				OFFSET	 0.000000	 0.544354	 0.000000
				CHANNELS 3 Zrotation Xrotation Yrotation
				JOINT RightToeBase
				{
					OFFSET	 0.000000	 0.207540	 0.000000
					CHANNELS 3 Zrotation Xrotation Yrotation
					End Site
					{
						OFFSET	 0.000000	 0.207540	 0.000000
					}
				}
			}
		}
	}
	JOINT Spine
	{
		OFFSET	 0.000184	 0.117403	 0.007763
		CHANNELS 3 Zrotation Xrotation Yrotation
		JOINT Spine1
		{
			OFFSET	 0.000000	 0.137269	 0.000000
			CHANNELS 3 Zrotation Xrotation Yrotation
			JOINT Spine2
			{
				OFFSET	 0.000000	 0.156879	 0.000000
				CHANNELS 3 Zrotation Xrotation Yrotation
				JOINT LeftShoulder
				{
					OFFSET	 0.080501	 0.160143	 0.002496
					CHANNELS 3 Zrotation Xrotation Yrotation
					JOINT LeftArm
					{
						OFFSET	 0.000000	 0.164363	 0.000000
						CHANNELS 3 Zrotation Xrotation Yrotation
						JOINT LeftForeArm
						{
							OFFSET	 0.000000	 0.364576	 0.000000
							CHANNELS 3 Zrotation Xrotation Yrotation
							JOINT LeftHand
							{
								OFFSET	 0.000000	 0.360812	 0.000000
								CHANNELS 3 Zrotation Xrotation Yrotation
								JOINT LeftHandIndex1
								{
									OFFSET	 0.000000	 0.086006	 0.000000
									CHANNELS 3 Zrotation Xrotation Yrotation
									JOINT LeftHandIndex2
									{
										OFFSET	 0.000000	 0.047237	 0.000000
										CHANNELS 3 Zrotation Xrotation Yrotation
										JOINT LeftHandIndex3
										{
											OFFSET	-0.004284	 0.038165	 0.000551
											CHANNELS 3 Zrotation Xrotation Yrotation
											End Site
											{
												OFFSET	-0.004284	 0.038165	 0.000551
											}
										}
									}
								}
							}
						}
					}
				}
				JOINT Neck
				{
					OFFSET	 0.000000	 0.176489	 0.000000
					CHANNELS 3 Zrotation Xrotation Yrotation
					JOINT Head
					{
						OFFSET	 0.000000	 0.077941	 0.001747
						CHANNELS 3 Zrotation Xrotation Yrotation
						End Site
						{
							OFFSET	 0.000000	 0.077941	 0.001747
						}
					}
				}
				JOINT RightShoulder
				{
					OFFSET	-0.080363	 0.159706	-0.000306
					CHANNELS 3 Zrotation Xrotation Yrotation
					JOINT RightArm
					{
						OFFSET	 0.000000	 0.164196	 0.000000
						CHANNELS 3 Zrotation Xrotation Yrotation
						JOINT RightForeArm
						{
							OFFSET	 0.000000	 0.365611	 0.000000
							CHANNELS 3 Zrotation Xrotation Yrotation
							JOINT RightHand
							{
								OFFSET	 0.000000	 0.360648	 0.000000
								CHANNELS 3 Zrotation Xrotation Yrotation
								JOINT RightHandIndex1
								{
									OFFSET	 0.000000	 0.069977	 0.000000
									CHANNELS 3 Zrotation Xrotation Yrotation
									JOINT RightHandIndex2
									{
										OFFSET	 0.000000	 0.052305	 0.000000
										CHANNELS 3 Zrotation Xrotation Yrotation
										JOINT RightHandIndex3
										{
											OFFSET	 0.009002	 0.042196	 0.000782
											CHANNELS 3 Zrotation Xrotation Yrotation
											End Site
											{
												OFFSET	 0.009002	 0.042196	 0.000782
											}
										}
									}
								}
							}
						}
					}
				}
			}
		}
	}
}
MOTION
Frames:    6
Frame Time: 0.03333334
 0.438148	 1.283900	 0.420920	 0.427030	-4.954079	-177.061200	-178.383100	 6.417035	-19.192730	 1.315362	-4.938604	 6.168893	 7.354251	 64.430820	-1.750426	 1.292262	 28.425850	-2.713146	 175.548800	 8.391145	 21.235350	-0.965149	-5.008346	 0.243010	-3.026156	 62.174360	-4.055731	-1.288183	 28.361890	 2.710176	-0.086974	 7.241036	 0.985254	-0.375434	-12.803180	 0.096733	 1.014727	 13.852580	-1.654277	-119.778300	-1.480193	 89.629460	 14.164830	-13.386610	-2.112692	 4.674158	-0.379927	 29.104390	 18.791040	 10.057960	 1.704116	-6.580301	 5.266122	 0.000000	 0.000000	 0.000000	 0.000000	 0.000000	 0.000000	 0.000000	 6.517512	 32.175290	 0.258192	-4.254145	-18.742420	-0.033672	 119.946500	-1.437952	-90.190410	-12.085440	-11.027520	 19.702720	-4.642718	 0.110610	-53.662970	-16.742160	 4.760751	 5.884403	 15.208500	 5.323790	 0.000000	 0.000000	 0.000000	 0.000000	 0.000000	 0.000000	 0.000000
 0.438505	 1.284853	 0.422573	 0.400083	-5.251942	-177.057300	-178.423100	 6.823287	-19.160020	 1.314229	-4.934386	 6.200821	 7.517337	 64.310090	-1.842071	 1.292262	 28.425850	-2.713146	 175.500300	 8.797345	 21.246300	-0.964560	-5.005342	 0.198514	-3.190846	 62.072600	-3.969836	-1.288183	 28.361890	 2.710176	-0.141576	 7.162050	 0.998927	-0.580636	-12.933320	 0.062207	 1.118173	 14.108620	-1.666352	-119.922600	-1.523302	 89.608060	 14.169000	-12.638310	-1.781036	 4.631017	-0.376383	 28.796560	 18.910900	 9.512590	 2.151294	-6.580301	 5.266122	 0.000000	 0.000000	 0.000000	 0.000000	 0.000000	 0.000000	 0.000000	 6.632814	 32.488740	 0.159099	-4.266526	-18.899340	-0.017161	 120.174200	-1.499163	-90.164760	-12.120950	-10.147200	 19.528620	-4.589838	 0.109374	-53.508160	-16.686460	 4.270924	 5.354110	 15.208500	 5.323790	 0.000000	 0.000000	 0.000000	 0.000000	 0.000000	 0.000000	 0.000000
 0.437154	 1.274281	 0.411806	 0.703992	-3.736831	-177.197700	-177.570300	 8.543733	-19.520900	 3.488255	-12.900020	 6.140825	 6.038561	 69.267430	-2.058156	 1.292262	 28.425850	-2.713146	 175.446700	 8.879354	 21.245410	-1.910759	-9.841422	 0.640451	-0.786905	 65.192920	-5.048434	-1.288183	 28.361890	 2.710176	 0.294684	 6.241025	 0.837863	-0.536087	-7.573728	 0.225121	 0.969908	 9.232102	-1.495461	-118.153300	-0.991028	 89.862890	 13.374910	 0.631968	-5.280913	 4.845198	-0.393849	 32.890740	 7.098891	-5.357003	 0.728742	-6.580301	 5.266122	 0.000000	 0.000000	 0.000000	 0.000000	 0.000000	 0.000000	 0.000000	 5.286351	 28.634090	 1.303281	-4.114084	-16.970550	-0.210229	 117.382400	-0.741462	-90.462420	-11.558980	 4.029110	 19.420270	-4.762366	 0.113501	-55.904210	-4.369947	-10.362860	 11.051230	 15.208500	 5.323790	 0.000000	 0.000000	 0.000000	 0.000000	 0.000000	 0.000000	 0.000000
 0.438033	 1.271027	 0.449271	 1.122046	-9.824273	-176.563100	-177.418600	 18.586120	-18.637270	 4.424645	-16.193400	 8.145751	 13.704790	 68.406940	-7.696792	 1.292262	 28.425850	-2.713146	 175.077000	 17.974700	 21.576100	-2.306585	-11.826390	-1.483592	-8.318656	 64.348270	 0.473008	-1.288183	 28.361890	 2.710176	 0.414024	 9.055138	 1.415304	-0.620108	-9.811139	 0.262983	 1.298968	 16.639510	-2.120033	-122.884200	-0.554568	 90.091400	 23.165630	 12.024800	 4.568758	 4.921599	-0.399979	 22.666390	 13.083730	-4.373078	 7.858073	-6.580301	 5.266122	 0.000000	 0.000000	 0.000000	 0.000000	 0.000000	 0.000000	 0.000000	 9.200292	 37.826470	-2.260068	-4.414135	-22.184690	 0.234074	 124.875800	-1.109091	-90.454420	-22.026140	 12.567520	 15.463400	-4.787984	 0.114085	-49.672740	-6.166450	-6.937431	-1.357971	 15.208500	 5.323790	 0.000000	 0.000000	 0.000000	 0.000000	 0.000000	 0.000000	 0.000000
 0.438722	 1.270519	 0.456923	 1.098648	-11.349890	-176.398600	-177.637500	 20.714260	-18.425460	 4.445439	-16.265340	 8.823797	 15.862910	 67.788180	-9.409369	 1.292262	 28.425850	-2.713146	 174.830900	 20.089580	 21.808030	-2.339773	-11.991600	-2.044622	-10.187500	 63.878280	 1.845469	-1.288183	 28.361890	 2.710176	 0.445617	 9.162198	 1.516067	-0.657972	-9.883467	 0.321730	 1.281311	 16.948110	-2.344078	-123.158200	 1.052727	 90.923600	 23.575560	 13.486650	 4.525681	 4.939611	-0.401482	 21.736290	 15.046520	-4.272833	 8.149911	-6.580301	 5.266122	 0.000000	 0.000000	 0.000000	 0.000000	 0.000000	 0.000000	 0.000000	 9.390183	 37.408750	-2.582852	-4.341862	-22.531250	 0.160229	 125.313600	 0.266267	-91.207020	-22.623680	 14.143490	 14.952970	-4.799601	 0.114370	-48.043820	-7.309964	-7.170199	-2.240385	 15.208500	 5.323790	 0.000000	 0.000000	 0.000000	 0.000000	 0.000000	 0.000000	 0.000000
 0.456479	 1.235374	 0.557463	 1.455913	-29.681340	-173.189300	 178.963200	 50.359920	-11.519100	 7.056658	-24.817620	 17.236620	 35.762560	 61.882890	-26.159770	 1.292262	 28.425850	-2.713146	 168.089200	 51.088280	 25.539410	-5.219365	-25.327640	-7.726591	-30.163590	 62.662310	 17.344270	-1.288183	 28.361890	 2.710176	 0.984099	 9.327857	 2.470665	 0.715078	-1.940746	 1.077378	 1.269795	 13.704140	-4.058534	-119.484100	 15.313010	 97.664880	 37.535350	 17.540420	-0.306859	 5.060898	-0.411299	 20.070730	 31.840520	-13.923700	 8.308956	-6.580301	 5.266122	 0.000000	 0.000000	 0.000000	 0.000000	 0.000000	 0.000000	 0.000000	 5.607551	 33.517770	-2.717840	-2.413585	-29.656680	-1.201950	 122.547400	 14.931890	-98.570960	-37.375660	 19.673160	 18.927860	-4.942900	 0.117779	-36.235450	-18.337530	-22.524190	-1.427065	 15.208500	 5.323790	 0.000000	 0.000000	 0.000000	 0.000000	 0.000000	 0.000000	 0.000000
